<svg xmlns="http://www.w3.org/2000/svg" xmlns:xlink="http://www.w3.org/1999/xlink" id="Layer_1" x="0px" y="0px" viewBox="0 0 172 50" style="enable-background:new 0 0 172 50;" xml:space="preserve"><style type="text/css">	.st0{fill:#F05624;}</style><g>	<path d="M48.81,49.21c-1.64,0-3.26-0.31-4.86-0.92c-1.6-0.61-3.03-1.5-4.3-2.67c-1.27-1.16-2.29-2.59-3.07-4.28   c-0.78-1.69-1.16-3.61-1.16-5.76c0-2.18,0.38-4.11,1.14-5.8c0.76-1.69,1.77-3.11,3.02-4.28c1.25-1.16,2.69-2.05,4.32-2.67   c1.63-0.61,3.29-0.92,5-0.92c1.79,0,3.45,0.33,4.97,0.97c1.52,0.65,2.77,1.54,3.76,2.66v-3.59h6.28v27.19h-6.28V45.3   c-0.99,1.21-2.26,2.17-3.81,2.87C52.28,48.86,50.61,49.21,48.81,49.21 M49.84,43.45c1.18,0,2.26-0.2,3.25-0.61   c0.99-0.41,1.84-0.97,2.56-1.7c0.71-0.72,1.28-1.57,1.7-2.53c0.42-0.96,0.63-2,0.63-3.1c0-1.08-0.21-2.09-0.63-3.06   c-0.42-0.96-0.99-1.79-1.7-2.51c-0.72-0.71-1.57-1.27-2.56-1.68c-0.99-0.41-2.08-0.61-3.25-0.61c-1.15,0-2.23,0.2-3.23,0.61   c-1.01,0.4-1.88,0.96-2.63,1.66c-0.74,0.7-1.32,1.53-1.74,2.49c-0.42,0.96-0.63,1.99-0.63,3.1c0,1.1,0.21,2.15,0.63,3.12   s1,1.82,1.74,2.53c0.75,0.71,1.62,1.27,2.63,1.68C47.61,43.25,48.69,43.45,49.84,43.45"></path>	<path d="M156.89,49.21c-1.64,0-3.26-0.31-4.86-0.92c-1.6-0.61-3.03-1.5-4.3-2.67s-2.3-2.59-3.07-4.28   c-0.77-1.69-1.16-3.61-1.16-5.76c0-2.18,0.38-4.11,1.14-5.8c0.76-1.69,1.76-3.11,3.02-4.28c1.25-1.16,2.7-2.05,4.32-2.67   c1.63-0.61,3.3-0.92,5-0.92c1.79,0,3.45,0.33,4.98,0.97c1.52,0.65,2.77,1.54,3.76,2.66v-3.59H172v27.19h-6.28V45.3   c-0.99,1.21-2.26,2.17-3.81,2.87C160.36,48.86,158.69,49.21,156.89,49.21 M157.92,43.45c1.18,0,2.26-0.2,3.25-0.61   c0.99-0.41,1.84-0.97,2.56-1.7c0.71-0.72,1.28-1.57,1.69-2.53c0.42-0.96,0.63-2,0.63-3.1c0-1.08-0.21-2.09-0.63-3.06   c-0.41-0.96-0.98-1.79-1.69-2.51c-0.72-0.71-1.57-1.27-2.56-1.68c-0.99-0.41-2.07-0.61-3.25-0.61c-1.14,0-2.23,0.2-3.23,0.61   c-1.01,0.4-1.88,0.96-2.63,1.66c-0.74,0.7-1.32,1.53-1.75,2.49c-0.41,0.96-0.62,1.99-0.62,3.1c0,1.1,0.21,2.15,0.62,3.12   c0.42,0.97,1,1.82,1.75,2.53c0.75,0.71,1.62,1.27,2.63,1.68C155.69,43.25,156.77,43.45,157.92,43.45"></path>	<path d="M67.73,21.98h6.23v3.71c0.9-1.14,2.04-2.05,3.41-2.73c1.38-0.69,2.95-1.03,4.72-1.03c3.38,0,6.02,1,7.93,3.01   c1.91,2.01,2.86,4.81,2.86,8.4v15.83h-6.37V34.04c0-2.05-0.51-3.68-1.54-4.88c-1.02-1.2-2.55-1.8-4.6-1.8   c-1.8,0-3.31,0.62-4.53,1.86C74.62,30.47,74,32.26,74,34.59v14.58h-6.27V21.98z"></path>	<path d="M106.73,49.21c-3.01,0-5.5-0.56-7.48-1.67c-1.98-1.12-3.52-2.74-4.6-4.85l5.81-2.61c0.65,1.19,1.54,2.1,2.65,2.74   c1.11,0.64,2.42,0.96,3.9,0.96c1.55,0,2.71-0.31,3.49-0.93c0.77-0.62,1.16-1.36,1.16-2.21c0-0.47-0.18-0.86-0.53-1.15   c-0.36-0.29-0.82-0.55-1.39-0.77c-0.57-0.22-1.25-0.4-2.02-0.56c-0.78-0.15-1.59-0.31-2.42-0.48c-1.18-0.24-2.33-0.52-3.46-0.84   c-1.13-0.33-2.15-0.78-3.05-1.36c-0.9-0.57-1.63-1.31-2.18-2.22c-0.56-0.9-0.84-2.03-0.84-3.39c0-1.03,0.25-2.03,0.76-2.99   c0.51-0.96,1.23-1.81,2.16-2.55c0.93-0.74,2.06-1.32,3.37-1.74c1.32-0.43,2.78-0.65,4.39-0.65c2.73,0,5,0.5,6.81,1.52   c1.81,1.01,3.24,2.38,4.3,4.12l-5.35,2.53c-0.56-0.92-1.33-1.63-2.33-2.16c-0.99-0.53-2.14-0.8-3.44-0.8   c-1.49,0-2.59,0.28-3.3,0.85c-0.71,0.56-1.07,1.21-1.07,1.95c0,0.86,0.52,1.47,1.58,1.84c1.05,0.37,2.6,0.76,4.65,1.18   c1.12,0.21,2.24,0.48,3.37,0.82c1.13,0.34,2.16,0.8,3.09,1.37c0.93,0.58,1.68,1.32,2.26,2.22c0.57,0.9,0.86,2.03,0.86,3.39   c0,0.92-0.22,1.87-0.65,2.86c-0.43,0.99-1.11,1.91-2.02,2.75c-0.92,0.84-2.07,1.53-3.46,2.06   C110.35,48.95,108.68,49.21,106.73,49.21"></path>	<path class="st0" d="M130.47,15.33c0-1.18,0.36-2.13,1.07-2.86c0.71-0.73,1.67-1.09,2.89-1.09c1.24,0,2.21,0.37,2.9,1.09   c0.7,0.73,1.05,1.68,1.05,2.86c0,1.18-0.35,2.12-1.05,2.84c-0.7,0.71-1.66,1.07-2.9,1.07c-1.27,0-2.25-0.36-2.93-1.07   C130.81,17.45,130.47,16.51,130.47,15.33"></path>	<path class="st0" d="M123.74,19.23c1.24,0,2.21-0.36,2.91-1.07c0.7-0.71,1.05-1.66,1.05-2.84c0-1.18-0.35-2.13-1.05-2.86   c-0.7-0.73-1.66-1.09-2.91-1.09c-1.21,0-2.17,0.36-2.88,1.09c-0.71,0.73-1.07,1.68-1.07,2.86c0,1.18,0.34,2.12,1.02,2.84   C121.49,18.88,122.47,19.23,123.74,19.23"></path>	<polygon points="143.1,21.93 123.74,21.93 123.74,21.98 120.58,21.98 120.58,49.17 126.9,49.17 126.9,28.25 131.26,28.25    131.26,49.17 137.58,49.17 137.58,28.25 143.1,28.25  "></polygon>	<path d="M6.52,41.88c-0.69,0.74-1.36,1.46-2.04,2.2c-0.17-0.16-0.29-0.27-0.4-0.38C2.73,42.35,1.37,41,0,39.63   c0.76-0.76,1.48-1.49,2.21-2.21c0.51-0.51,1.03-1.02,1.57-1.5c0.24-0.22,0.28-0.44,0.21-0.72c-0.66-2.85-0.87-5.74-0.73-8.65   C3.57,20.23,5.17,14.28,8.58,8.9c1.64-2.59,3.67-4.83,6.35-6.41c2.13-1.26,4.43-1.93,6.9-1.63c3.76,0.44,6.3,2.55,7.64,6.06   c1.16,3.03,0.81,6.05-0.34,9.01c-0.82,2.09-1.96,4-3.25,5.82c-0.15,0.21-0.29,0.42-0.43,0.61c5.87,3.74,8.59,8.96,7.04,15.84   c-1.23,5.49-4.85,9.11-10.33,10.43C15.45,50.23,10.38,47.51,6.52,41.88 M9.6,30.3c0.13-0.09,0.18-0.12,0.23-0.16   c3.4-3.35,6.81-6.67,9.75-10.45c1.48-1.9,2.85-3.88,3.73-6.14c0.49-1.26,0.75-2.55,0.45-3.9c-0.31-1.38-1.28-2.75-3.36-2.53   c-1.4,0.15-2.54,0.84-3.58,1.72c-2.14,1.82-3.56,4.15-4.69,6.68c-2.02,4.53-2.8,9.3-2.59,14.24C9.55,29.9,9.58,30.06,9.6,30.3    M18.92,42.8c0.32-0.03,0.77-0.05,1.2-0.13c3.59-0.64,6.2-3.5,6.49-7.23c0.26-3.25-1.62-6.5-5-7.86c-0.27-0.11-0.44-0.08-0.65,0.15   c-1.23,1.32-2.46,2.63-3.73,3.9c-1.86,1.86-3.76,3.68-5.66,5.51c-0.23,0.22-0.27,0.39-0.11,0.65c0.23,0.36,0.42,0.76,0.66,1.12   C13.74,41.26,15.84,42.75,18.92,42.8"></path></g></svg>